<?xml version="1.0" encoding="utf-8"?>
<!-- Generator: Adobe Illustrator 17.0.0, SVG Export Plug-In . SVG Version: 6.00 Build 0)  -->
<!DOCTYPE svg PUBLIC "-//W3C//DTD SVG 1.1//EN" "http://www.w3.org/Graphics/SVG/1.1/DTD/svg11.dtd">
<svg version="1.1" id="Layer_1" xmlns="http://www.w3.org/2000/svg" xmlns:xlink="http://www.w3.org/1999/xlink" x="0px" y="0px"
	 width="485.402px" height="239.262px" viewBox="0 0 485.402 239.262" enable-background="new 0 0 485.402 239.262"
	 xml:space="preserve">
<g>
	<polygon fill="#2DB99F" points="289.881,239.261 289.881,166.631 337.061,136.864 	"/>
	<polygon fill="#1F8170" points="195.521,239.261 195.521,166.631 148.341,136.864 	"/>
	<polygon fill="#2DB99F" points="242.701,209.495 242.701,136.864 195.521,166.631 195.521,239.261 	"/>
	<polygon fill="#1F8170" points="289.881,239.261 289.881,166.631 242.701,136.864 242.701,209.495 	"/>
	<path fill="#2DB99F" d="M415.476,90.835c8.349,0,14.938-5.387,20.922-11.249c2.143,7.177,8.248,11.249,17.018,11.249
		c6.133,0,12.601-3.254,19.251-9.68v7.85h12.735V24.544h-12.735v44.73c-5.054,4.734-12.059,9.679-16.933,9.679
		c-5.521,0-8.149-2.479-8.149-16.567V24.544h-12.736v44.732c-5.17,4.864-12.245,9.677-16.689,9.677
		c-6.511,0-8.394-3.716-8.394-16.567V24.544h-12.735v42.722C397.031,83.565,402.719,90.835,415.476,90.835z"/>
	<path fill="#2DB99F" d="M356.744,90.835c19.718,0,29.303-11.301,29.303-34.549c0-22.591-10.024-33.572-30.645-33.572
		c-8.29,0-15.232,2.209-20.635,6.565l-0.775,0.625l7.664,9.58l0.79-0.79c2.46-2.46,7.966-5.075,13.322-5.075
		c13.687,0,16.948,10.225,17.165,19.228h-42.686v8.441C330.248,80.894,339.162,90.835,356.744,90.835z M357.232,80.295
		c-9.667,0-14.125-5.227-14.361-16.909h29.857C371.556,74.762,366.48,80.295,357.232,80.295z"/>
	<path fill="#2DB99F" d="M224.939,90.835c10.729,0,18.61-2.398,24.092-7.333l0.706-0.635l-7.484-9.245l-0.783,0.71
		c-4.272,3.871-9.294,5.598-16.286,5.598c-9.902,0-14.128-3.422-14.128-11.443v-2.11c5.396-0.337,10.113-0.695,15.209-1.288
		c12.809-1.36,25.903-5.034,25.903-21.977c0-12.391-8.102-20.397-20.641-20.397c-7.748,0-13.719,3.236-20.472,8.552v-6.722H198.32
		v43.454C198.32,84.219,206.032,90.835,224.939,90.835z M215.052,55.799c-1.4,0.14-2.701,0.269-3.997,0.379V42.502
		c5.263-4.092,11.203-8.639,17.178-8.639c7.391,0,10.833,3.017,10.833,9.492c0,8.62-7.118,10.957-18.604,11.935
		C218.431,55.464,216.675,55.638,215.052,55.799z"/>
	<path fill="#2DB99F" d="M75.077,44.307c7.243-6.088,14.1-9.711,18.396-9.711c7.931,0,10.102,3.562,10.102,16.567v37.842h12.735
		V47.503c0-16.681-6.712-24.789-20.519-24.789c-6.211,0-13.506,3.476-20.715,9.833v-8.003H62.341v64.461h12.735V44.307H75.077z"/>
	<path fill="#2DB99F" d="M23.339,63.024l0.847,0.211c0.441,0.107,0.897,0.215,1.363,0.324c5.236,1.229,11.172,2.624,11.172,8.342
		c0,7.873-9.939,8.271-11.932,8.271c-5.936,0-10.748-2.435-13.551-6.854l-0.511-0.806L0.23,78.49l0.521,0.876
		c4.264,7.182,13.067,11.469,23.55,11.469c11.491,0,24.911-5.183,24.911-19.787c0-13.583-10.68-17.39-21.621-20.124
		c-12.237-3.029-15.099-4.214-15.099-8.911c0-3.94,2.324-8.637,13.395-8.637c4.708,0,11.113,1.232,14.896,7.105l0.513,0.796
		l10.465-5.959l-0.478-0.864c-4.779-8.656-16.001-11.74-24.908-11.74C9.859,22.714,0,30.248,0,42.867
		C0,57.209,12.399,60.298,23.339,63.024z"/>
	<path fill="#2DB99F" d="M152.497,90.835c6.613,0,13.43-2.493,19.008-6.899v20.579h12.735V23.691h-4.538l-7.202,2.034
		c-0.232-0.065-0.49-0.14-0.772-0.222c-3.136-0.905-9.661-2.789-18.254-2.789c-16.744,0-26.741,12.915-26.741,34.549
		C126.732,78.912,135.882,90.835,152.497,90.835z M171.505,72.185c-3.347,2.934-9.717,7.501-16.934,7.501
		c-10.055,0-14.737-7.202-14.737-22.667c0-14.932,5.624-23.155,15.835-23.155c8.603,0,12.883,1.594,15.836,3.24V72.185z"/>
	<path fill="#2DB99F" d="M267.638,89.923l7.202-2.034c0.232,0.065,0.49,0.14,0.772,0.222c3.136,0.905,9.661,2.789,18.254,2.789
		c16.744,0,26.741-12.915,26.741-34.549c0-21.649-9.15-33.572-25.765-33.572c-5.323,0-10.776,1.618-15.61,4.545
		c-1.135,0.623-2.267,1.302-3.398,2.088v-4.257c0-10.381,4.694-14.615,16.201-14.615c6.681,0,13.152,2.609,16.665,4.845l0.975,0.62
		l4.611-10.262l-0.732-0.464C309.546,2.74,300.179,0,292.035,0c-11.841,0-19.883,2.949-24.427,9.1
		c-3.032,4.104-4.509,9.63-4.509,16.665v5.366v58.793L267.638,89.923L267.638,89.923z M275.836,41.429
		c3.347-2.934,9.717-7.501,16.934-7.501c10.055,0,14.737,7.202,14.737,22.667c0,14.932-5.624,23.155-15.835,23.155
		c-8.603,0-12.883-1.594-15.836-3.24V41.429z"/>
</g>
<g opacity="0.4">
	<path fill="#FF0000" d="M198.425,29.052l25.92,39.067c6.761,10.142,12.396,19.533,18.405,29.676h1.127
		c6.011-10.894,12.022-20.285,18.032-30.052l25.543-38.691h35.686l-61.98,87.9l63.859,93.912h-37.564l-26.67-40.945
		c-7.138-10.518-13.148-20.661-19.534-31.556h-0.752c-6.011,10.895-12.396,20.661-19.157,31.556l-26.295,40.945h-36.438
		l64.611-92.785l-61.605-89.027H198.425z"/>
</g>
</svg>
