<?xml version="1.0" encoding="utf-8"?>
<!-- Generator: Adobe Illustrator 17.0.0, SVG Export Plug-In . SVG Version: 6.00 Build 0)  -->
<!DOCTYPE svg PUBLIC "-//W3C//DTD SVG 1.1//EN" "http://www.w3.org/Graphics/SVG/1.1/DTD/svg11.dtd">
<svg version="1.1" id="Layer_1" xmlns="http://www.w3.org/2000/svg" xmlns:xlink="http://www.w3.org/1999/xlink" x="0px" y="0px"
	 width="740px" height="489px" viewBox="0 0 740 489" enable-background="new 0 0 740 489" xml:space="preserve">
<polygon fill="#2DB99F" points="322.826,127.603 322.826,200.233 275.647,230 "/>
<polygon fill="#1F8170" points="417.186,127.603 417.186,200.233 464.366,230 "/>
<polygon fill="#2DB99F" points="370.006,157.37 370.006,230 417.186,200.234 417.186,127.603 "/>
<polygon fill="#1F8170" points="322.827,127.603 322.827,200.234 370.006,230 370.006,157.37 "/>
<path fill="#2DB99F" d="M197.231,268.795c-8.349,0-14.938,5.387-20.922,11.249c-2.143-7.177-8.248-11.249-17.018-11.249
	c-6.133,0-12.601,3.254-19.251,9.68v-7.85h-12.735v64.461h12.735v-44.73c5.054-4.734,12.059-9.679,16.933-9.679
	c5.521,0,8.149,2.479,8.149,16.567v37.842h12.736v-44.732c5.17-4.864,12.245-9.677,16.689-9.677c6.511,0,8.394,3.716,8.394,16.567
	v37.842h12.735v-42.722C215.676,276.064,209.988,268.795,197.231,268.795z"/>
<path fill="#2DB99F" d="M255.963,268.795c-19.718,0-29.303,11.301-29.303,34.549c0,22.591,10.024,33.572,30.645,33.572
	c8.29,0,15.232-2.209,20.635-6.565l0.775-0.625l-7.664-9.58l-0.79,0.79c-2.46,2.46-7.966,5.075-13.322,5.075
	c-13.687,0-16.948-10.225-17.165-19.228h42.686v-8.441C282.459,278.736,273.545,268.795,255.963,268.795z M255.475,279.335
	c9.667,0,14.125,5.227,14.361,16.909h-29.857C241.151,284.868,246.228,279.335,255.475,279.335z"/>
<path fill="#2DB99F" d="M387.768,268.795c-10.729,0-18.61,2.398-24.092,7.333l-0.706,0.635l7.484,9.245l0.783-0.71
	c4.272-3.871,9.294-5.598,16.286-5.598c9.902,0,14.128,3.422,14.128,11.443v2.11c-5.396,0.337-10.113,0.695-15.209,1.288
	c-12.809,1.36-25.903,5.034-25.903,21.977c0,12.391,8.102,20.397,20.641,20.397c7.748,0,13.719-3.236,20.472-8.552v6.722h12.735
	v-43.454C414.387,275.411,406.675,268.795,387.768,268.795z M397.655,303.831c1.4-0.14,2.701-0.269,3.997-0.379v13.676
	c-5.263,4.092-11.203,8.639-17.178,8.639c-7.391,0-10.833-3.017-10.833-9.492c0-8.62,7.118-10.957,18.604-11.935
	C394.276,304.166,396.032,303.992,397.655,303.831z"/>
<path fill="#2DB99F" d="M537.63,315.323c-7.243,6.088-14.1,9.711-18.396,9.711c-7.931,0-10.102-3.562-10.102-16.567v-37.842h-12.735
	v41.502c0,16.681,6.712,24.789,20.519,24.789c6.211,0,13.506-3.476,20.715-9.833v8.003h12.735v-64.461H537.63V315.323z"/>
<path fill="#2DB99F" d="M589.369,296.605l-0.847-0.211c-0.441-0.107-0.897-0.215-1.363-0.324
	c-5.236-1.229-11.172-2.624-11.172-8.342c0-7.873,9.939-8.271,11.932-8.271c5.936,0,10.748,2.435,13.551,6.854l0.511,0.806
	l10.497-5.978l-0.521-0.876c-4.264-7.182-13.067-11.469-23.55-11.469c-11.491,0-24.911,5.183-24.911,19.787
	c0,13.583,10.68,17.39,21.621,20.124c12.237,3.029,15.099,4.214,15.099,8.911c0,3.94-2.324,8.637-13.395,8.637
	c-4.708,0-11.113-1.232-14.896-7.105l-0.513-0.796l-10.465,5.959l0.478,0.864c4.779,8.656,16.001,11.74,24.908,11.74
	c16.516,0,26.375-7.534,26.375-20.153C612.708,302.421,600.308,299.332,589.369,296.605z"/>
<path fill="#2DB99F" d="M460.21,268.795c-6.613,0-13.43,2.493-19.008,6.899v-20.579h-12.735v80.824h4.538l7.202-2.034
	c0.232,0.065,0.49,0.14,0.772,0.222c3.136,0.905,9.661,2.789,18.254,2.789c16.744,0,26.741-12.915,26.741-34.549
	C485.975,280.718,476.825,268.795,460.21,268.795z M441.203,287.445c3.347-2.934,9.717-7.501,16.934-7.501
	c10.055,0,14.737,7.202,14.737,22.667c0,14.932-5.624,23.155-15.835,23.155c-8.603,0-12.883-1.594-15.836-3.24V287.445z"/>
<path fill="#2DB99F" d="M345.069,269.707l-7.202,2.034c-0.232-0.065-0.49-0.14-0.772-0.222c-3.136-0.905-9.661-2.789-18.254-2.789
	c-16.744,0-26.741,12.915-26.741,34.549c0,21.649,9.15,33.572,25.765,33.572c5.323,0,10.776-1.618,15.61-4.545
	c1.135-0.623,2.267-1.302,3.398-2.088v4.257c0,10.381-4.694,14.615-16.201,14.615c-6.681,0-13.152-2.609-16.665-4.845l-0.975-0.62
	l-4.611,10.262l0.732,0.464c4.008,2.539,13.375,5.279,21.519,5.279c11.841,0,19.883-2.949,24.427-9.1
	c3.032-4.104,4.509-9.63,4.509-16.665V328.5v-58.793H345.069z M336.872,318.201c-3.347,2.934-9.717,7.501-16.934,7.501
	c-10.055,0-14.737-7.202-14.737-22.667c0-14.932,5.624-23.155,15.835-23.155c8.603,0,12.883,1.594,15.836,3.24V318.201z"/>
<polyline fill="none" stroke="#999999" stroke-miterlimit="10" stroke-dasharray="12" points="616,121.5 624.356,121.5 624.5,361.5 
	616,361.5 "/>
<g enable-background="new    ">
	<path fill="#999999" d="M648.163,141.446l-3.41-4.939h1.71c0.146,0,0.254,0.023,0.32,0.07c0.066,0.046,0.127,0.113,0.18,0.199
		l2.48,3.801c0.06-0.187,0.146-0.374,0.26-0.561l2.18-3.2c0.066-0.093,0.133-0.168,0.2-0.225c0.066-0.057,0.149-0.085,0.25-0.085
		h1.64l-3.41,4.84l3.551,5.29h-1.711c-0.146,0-0.262-0.038-0.344-0.115c-0.084-0.076-0.152-0.161-0.205-0.255l-2.551-3.97
		c-0.047,0.193-0.116,0.366-0.21,0.52l-2.36,3.45c-0.066,0.094-0.138,0.179-0.215,0.255c-0.076,0.077-0.182,0.115-0.314,0.115h-1.59
		L648.163,141.446z"/>
</g>
<g>
	<g>
		<polyline fill="none" stroke="#999999" stroke-miterlimit="10" points="739.5,7 739.5,0.5 733,0.5 		"/>
		<line fill="none" stroke="#999999" stroke-miterlimit="10" stroke-dasharray="12,12" x1="722" y1="0.5" x2="12" y2="0.5"/>
		<polyline fill="none" stroke="#999999" stroke-miterlimit="10" points="6,0.5 0.5,0.5 0.5,7 		"/>
		<line fill="none" stroke="#999999" stroke-miterlimit="10" stroke-dasharray="12,12" x1="0.5" y1="19" x2="0.5" y2="476"/>
		<polyline fill="none" stroke="#999999" stroke-miterlimit="10" points="0.5,483 0.5,488.5 6,488.5 		"/>
		<line fill="none" stroke="#999999" stroke-miterlimit="10" stroke-dasharray="12,12" x1="18" y1="488.5" x2="728" y2="488.5"/>
		<polyline fill="none" stroke="#999999" stroke-miterlimit="10" points="733,488.5 739.5,488.5 739.5,483 		"/>
		<line fill="none" stroke="#999999" stroke-miterlimit="10" stroke-dasharray="12,12" x1="739.5" y1="470" x2="739.5" y2="13"/>
	</g>
</g>
<line fill="none" stroke="#999999" stroke-miterlimit="10" stroke-dasharray="12" x1="370.5" y1="128" x2="370.5" y2="1"/>
<line fill="none" stroke="#999999" stroke-miterlimit="10" stroke-dasharray="12" x1="127" y1="243.5" x2="0" y2="243.5"/>
<line fill="none" stroke="#999999" stroke-miterlimit="10" stroke-dasharray="12" x1="736" y1="243.5" x2="609" y2="243.5"/>
<line fill="none" stroke="#999999" stroke-miterlimit="10" stroke-dasharray="12" x1="370.5" y1="489" x2="370.5" y2="362"/>
<g enable-background="new    ">
	<path fill="#999999" d="M385.87,73.647h3.08v-9.77c0-0.293,0.01-0.59,0.03-0.89l-2.561,2.189c-0.066,0.054-0.133,0.092-0.199,0.115
		c-0.067,0.023-0.131,0.035-0.191,0.035c-0.1,0-0.189-0.021-0.27-0.065c-0.08-0.043-0.14-0.095-0.18-0.155l-0.561-0.77l4.26-3.69
		h1.451v13h2.819v1.36h-7.68V73.647z"/>
	<path fill="#999999" d="M396.209,75.217c-0.093,0.233-0.23,0.406-0.414,0.521c-0.184,0.113-0.372,0.17-0.565,0.17h-0.75
		l6.011-14.971c0.086-0.213,0.209-0.376,0.369-0.489s0.35-0.171,0.57-0.171h0.75L396.209,75.217z"/>
	<path fill="#999999" d="M408.069,60.517c0.606,0,1.173,0.09,1.7,0.271c0.526,0.18,0.981,0.441,1.365,0.785
		c0.383,0.343,0.685,0.762,0.904,1.255c0.221,0.493,0.33,1.053,0.33,1.68c0,0.533-0.08,1.026-0.24,1.48
		c-0.159,0.453-0.376,0.888-0.649,1.305s-0.589,0.82-0.944,1.21c-0.357,0.39-0.735,0.788-1.136,1.195l-3.771,3.859
		c0.268-0.073,0.537-0.132,0.811-0.175s0.537-0.065,0.79-0.065h4.8c0.193,0,0.347,0.058,0.461,0.171
		c0.113,0.113,0.17,0.26,0.17,0.439v1.08H403.1v-0.61c0-0.126,0.025-0.256,0.075-0.39c0.05-0.133,0.132-0.257,0.245-0.37l4.59-4.61
		c0.38-0.386,0.727-0.758,1.04-1.114s0.581-0.715,0.805-1.075s0.396-0.725,0.515-1.095c0.121-0.37,0.181-0.766,0.181-1.186
		s-0.067-0.788-0.2-1.104s-0.316-0.578-0.55-0.785s-0.507-0.361-0.82-0.465s-0.649-0.155-1.01-0.155s-0.693,0.054-1,0.16
		s-0.579,0.255-0.815,0.444c-0.236,0.19-0.437,0.415-0.6,0.676c-0.164,0.26-0.278,0.547-0.346,0.859
		c-0.053,0.193-0.133,0.334-0.239,0.42c-0.106,0.087-0.247,0.131-0.42,0.131c-0.034,0-0.069-0.002-0.105-0.006
		c-0.036-0.003-0.078-0.008-0.125-0.015l-0.93-0.16c0.093-0.653,0.273-1.231,0.54-1.734c0.267-0.504,0.605-0.926,1.015-1.266
		c0.41-0.34,0.88-0.598,1.41-0.774S407.456,60.517,408.069,60.517z"/>
	<path fill="#999999" d="M417.489,69.817l-3.41-4.939h1.71c0.146,0,0.254,0.023,0.32,0.07c0.066,0.046,0.127,0.113,0.18,0.199
		l2.48,3.801c0.06-0.187,0.146-0.374,0.26-0.561l2.18-3.2c0.066-0.093,0.133-0.168,0.2-0.225c0.066-0.057,0.149-0.085,0.25-0.085
		h1.64l-3.41,4.84l3.551,5.29h-1.711c-0.146,0-0.262-0.038-0.344-0.115c-0.084-0.076-0.152-0.161-0.205-0.255l-2.551-3.97
		c-0.047,0.193-0.116,0.366-0.21,0.52l-2.36,3.45c-0.066,0.094-0.138,0.179-0.215,0.255c-0.076,0.077-0.182,0.115-0.314,0.115h-1.59
		L417.489,69.817z"/>
</g>
<g enable-background="new    ">
	<path fill="#999999" d="M390.334,426.146h3.08v-9.77c0-0.293,0.01-0.59,0.029-0.889l-2.561,2.189
		c-0.066,0.053-0.133,0.092-0.199,0.115s-0.131,0.035-0.19,0.035c-0.1,0-0.19-0.021-0.271-0.066
		c-0.079-0.043-0.139-0.094-0.18-0.154l-0.56-0.77l4.26-3.691h1.45v13h2.82v1.361h-7.68V426.146z"/>
	<path fill="#999999" d="M400.673,427.717c-0.093,0.234-0.231,0.406-0.415,0.521c-0.184,0.113-0.371,0.17-0.564,0.17h-0.75
		l6.01-14.971c0.086-0.213,0.21-0.377,0.369-0.49c0.16-0.113,0.351-0.17,0.57-0.17h0.75L400.673,427.717z"/>
	<path fill="#999999" d="M412.533,413.018c0.606,0,1.173,0.09,1.699,0.27c0.527,0.18,0.982,0.441,1.365,0.785
		c0.384,0.344,0.686,0.762,0.905,1.256c0.22,0.492,0.33,1.053,0.33,1.68c0,0.533-0.08,1.025-0.24,1.48
		c-0.159,0.453-0.376,0.887-0.649,1.305c-0.273,0.416-0.589,0.82-0.945,1.209c-0.357,0.391-0.734,0.789-1.135,1.195l-3.771,3.859
		c0.267-0.072,0.536-0.131,0.81-0.174s0.537-0.066,0.791-0.066h4.8c0.192,0,0.347,0.059,0.46,0.172s0.17,0.26,0.17,0.439v1.08
		h-9.561v-0.611c0-0.125,0.025-0.256,0.076-0.389c0.049-0.133,0.131-0.258,0.244-0.371l4.59-4.609
		c0.381-0.387,0.727-0.758,1.041-1.115c0.312-0.355,0.581-0.715,0.805-1.074c0.223-0.361,0.395-0.725,0.515-1.096
		c0.12-0.369,0.181-0.766,0.181-1.186s-0.067-0.787-0.201-1.104c-0.133-0.316-0.316-0.578-0.549-0.785
		c-0.234-0.207-0.508-0.361-0.82-0.465c-0.314-0.104-0.65-0.156-1.01-0.156c-0.361,0-0.693,0.055-1,0.16
		c-0.307,0.107-0.579,0.256-0.815,0.445c-0.237,0.189-0.437,0.414-0.601,0.676c-0.163,0.26-0.277,0.547-0.345,0.859
		c-0.054,0.193-0.134,0.334-0.239,0.42c-0.107,0.086-0.248,0.131-0.42,0.131c-0.034,0-0.069-0.002-0.105-0.006
		c-0.037-0.004-0.078-0.008-0.125-0.016l-0.93-0.16c0.093-0.652,0.273-1.23,0.539-1.734c0.268-0.504,0.605-0.926,1.016-1.266
		s0.88-0.598,1.41-0.773C411.348,413.105,411.92,413.018,412.533,413.018z"/>
	<path fill="#999999" d="M421.953,422.316l-3.41-4.939h1.709c0.146,0,0.254,0.023,0.32,0.07s0.127,0.113,0.18,0.199l2.48,3.801
		c0.061-0.186,0.146-0.373,0.26-0.561l2.18-3.199c0.067-0.094,0.134-0.168,0.201-0.225c0.066-0.057,0.149-0.086,0.25-0.086h1.64
		l-3.41,4.84l3.55,5.291h-1.71c-0.146,0-0.262-0.039-0.345-0.115c-0.084-0.076-0.152-0.162-0.205-0.256l-2.55-3.969
		c-0.047,0.193-0.116,0.365-0.21,0.52l-2.36,3.449c-0.066,0.094-0.138,0.18-0.215,0.256s-0.182,0.115-0.315,0.115h-1.59
		L421.953,422.316z"/>
</g>
<g enable-background="new    ">
	<path fill="#999999" d="M674.269,228.64h3.08v-9.77c0-0.293,0.01-0.59,0.03-0.89l-2.561,2.189
		c-0.066,0.054-0.133,0.092-0.199,0.115c-0.067,0.023-0.131,0.035-0.19,0.035c-0.1,0-0.19-0.021-0.271-0.065
		c-0.079-0.043-0.14-0.095-0.18-0.155l-0.56-0.77l4.26-3.69h1.45v13h2.819V230h-7.68V228.64z"/>
	<path fill="#999999" d="M684.608,230.21c-0.094,0.233-0.231,0.406-0.415,0.521c-0.184,0.113-0.372,0.17-0.565,0.17h-0.75
		l6.011-14.971c0.086-0.213,0.21-0.376,0.369-0.489c0.16-0.113,0.351-0.171,0.57-0.171h0.75L684.608,230.21z"/>
	<path fill="#999999" d="M696.468,215.51c0.607,0,1.174,0.09,1.7,0.271c0.526,0.18,0.981,0.441,1.365,0.785
		c0.384,0.343,0.685,0.762,0.905,1.255c0.22,0.493,0.33,1.053,0.33,1.68c0,0.533-0.08,1.026-0.24,1.48
		c-0.16,0.453-0.377,0.888-0.65,1.305s-0.588,0.82-0.944,1.21c-0.357,0.39-0.735,0.788-1.136,1.195l-3.77,3.859
		c0.267-0.073,0.536-0.132,0.81-0.175s0.537-0.065,0.79-0.065h4.801c0.192,0,0.346,0.058,0.46,0.171
		c0.113,0.113,0.17,0.26,0.17,0.439V230h-9.561v-0.61c0-0.126,0.025-0.256,0.075-0.39c0.05-0.133,0.132-0.257,0.245-0.37l4.59-4.61
		c0.38-0.386,0.727-0.758,1.04-1.114s0.582-0.715,0.805-1.075c0.224-0.36,0.396-0.725,0.516-1.095s0.18-0.766,0.18-1.186
		s-0.066-0.788-0.2-1.104c-0.133-0.316-0.316-0.578-0.55-0.785s-0.507-0.361-0.82-0.465s-0.649-0.155-1.01-0.155
		s-0.693,0.054-1,0.16s-0.578,0.255-0.814,0.444c-0.237,0.19-0.438,0.415-0.601,0.676c-0.163,0.26-0.278,0.547-0.345,0.859
		c-0.054,0.193-0.134,0.334-0.24,0.42c-0.106,0.087-0.247,0.131-0.42,0.131c-0.033,0-0.068-0.002-0.105-0.006
		c-0.036-0.003-0.078-0.008-0.125-0.015l-0.93-0.16c0.094-0.653,0.273-1.231,0.54-1.734c0.267-0.504,0.605-0.926,1.015-1.266
		c0.41-0.34,0.881-0.598,1.41-0.774C695.283,215.599,695.854,215.51,696.468,215.51z"/>
	<path fill="#999999" d="M705.888,224.81l-3.41-4.939h1.71c0.146,0,0.254,0.023,0.32,0.07c0.066,0.046,0.127,0.113,0.18,0.199
		l2.48,3.801c0.06-0.187,0.146-0.374,0.26-0.561l2.18-3.2c0.067-0.093,0.134-0.168,0.2-0.225s0.15-0.085,0.25-0.085h1.641
		l-3.41,4.84l3.55,5.29h-1.71c-0.146,0-0.262-0.038-0.345-0.115c-0.084-0.076-0.152-0.161-0.205-0.255l-2.55-3.97
		c-0.047,0.193-0.117,0.366-0.211,0.52l-2.359,3.45c-0.066,0.094-0.139,0.179-0.215,0.255c-0.077,0.077-0.182,0.115-0.315,0.115
		h-1.59L705.888,224.81z"/>
</g>
<g enable-background="new    ">
	<path fill="#999999" d="M30.732,228.64h3.08v-9.77c0-0.293,0.01-0.59,0.03-0.89l-2.56,2.189c-0.066,0.054-0.133,0.092-0.2,0.115
		c-0.067,0.023-0.13,0.035-0.19,0.035c-0.1,0-0.19-0.021-0.27-0.065c-0.08-0.043-0.14-0.095-0.18-0.155l-0.56-0.77l4.26-3.69h1.45
		v13h2.82V230h-7.68V228.64z"/>
	<path fill="#999999" d="M41.072,230.21c-0.093,0.233-0.231,0.406-0.415,0.521c-0.183,0.113-0.372,0.17-0.565,0.17h-0.75
		l6.01-14.971c0.086-0.213,0.21-0.376,0.37-0.489c0.16-0.113,0.35-0.171,0.57-0.171h0.75L41.072,230.21z"/>
	<path fill="#999999" d="M52.932,215.51c0.607,0,1.173,0.09,1.7,0.271c0.526,0.18,0.981,0.441,1.365,0.785
		c0.383,0.343,0.685,0.762,0.905,1.255s0.33,1.053,0.33,1.68c0,0.533-0.08,1.026-0.24,1.48c-0.16,0.453-0.376,0.888-0.65,1.305
		s-0.588,0.82-0.945,1.21c-0.357,0.39-0.735,0.788-1.135,1.195l-3.77,3.859c0.267-0.073,0.537-0.132,0.81-0.175
		s0.537-0.065,0.79-0.065h4.8c0.193,0,0.346,0.058,0.46,0.171c0.113,0.113,0.17,0.26,0.17,0.439V230h-9.56v-0.61
		c0-0.126,0.025-0.256,0.075-0.39c0.05-0.133,0.131-0.257,0.245-0.37l4.59-4.61c0.38-0.386,0.727-0.758,1.04-1.114
		c0.313-0.356,0.582-0.715,0.805-1.075s0.395-0.725,0.515-1.095s0.18-0.766,0.18-1.186s-0.067-0.788-0.2-1.104
		s-0.317-0.578-0.55-0.785c-0.234-0.207-0.507-0.361-0.82-0.465s-0.65-0.155-1.01-0.155c-0.36,0-0.693,0.054-1,0.16
		s-0.579,0.255-0.815,0.444c-0.237,0.19-0.437,0.415-0.6,0.676c-0.164,0.26-0.278,0.547-0.345,0.859
		c-0.053,0.193-0.133,0.334-0.24,0.42c-0.107,0.087-0.247,0.131-0.42,0.131c-0.034,0-0.069-0.002-0.105-0.006
		c-0.037-0.003-0.078-0.008-0.125-0.015l-0.93-0.16c0.093-0.653,0.273-1.231,0.54-1.734c0.267-0.504,0.605-0.926,1.015-1.266
		c0.41-0.34,0.88-0.598,1.41-0.774C51.747,215.599,52.318,215.51,52.932,215.51z"/>
	<path fill="#999999" d="M62.352,224.81l-3.41-4.939h1.71c0.146,0,0.253,0.023,0.32,0.07c0.066,0.046,0.126,0.113,0.18,0.199
		l2.48,3.801c0.06-0.187,0.146-0.374,0.26-0.561l2.18-3.2c0.067-0.093,0.133-0.168,0.2-0.225c0.066-0.057,0.15-0.085,0.25-0.085
		h1.64l-3.41,4.84l3.55,5.29h-1.71c-0.146,0-0.262-0.038-0.345-0.115c-0.083-0.076-0.152-0.161-0.205-0.255l-2.55-3.97
		c-0.047,0.193-0.117,0.366-0.21,0.52l-2.36,3.45c-0.066,0.094-0.138,0.179-0.215,0.255C60.63,229.962,60.525,230,60.392,230h-1.59
		L62.352,224.81z"/>
</g>
<polyline fill="none" stroke="#999999" stroke-miterlimit="10" stroke-dasharray="12" points="101,334.5 92.144,334.5 92,270.5 
	100,270.5 "/>
<g enable-background="new    ">
	<path fill="#999999" d="M75.097,312.248c-0.06,0.133-0.135,0.24-0.225,0.319c-0.09,0.08-0.229,0.12-0.415,0.12h-1.32l1.85-4.02
		l-4.18-9.54h1.54c0.153,0,0.273,0.038,0.36,0.115c0.086,0.076,0.15,0.161,0.19,0.255l2.71,6.38c0.06,0.146,0.112,0.293,0.155,0.439
		c0.043,0.147,0.082,0.297,0.115,0.45c0.046-0.153,0.093-0.303,0.14-0.45c0.046-0.146,0.1-0.296,0.16-0.449l2.63-6.37
		c0.04-0.106,0.108-0.195,0.205-0.266c0.096-0.069,0.201-0.104,0.315-0.104h1.42L75.097,312.248z"/>
</g>
<line fill="none" stroke="#999999" stroke-miterlimit="10" stroke-dasharray="12" x1="369.5" y1="230" x2="369.5" y2="269"/>
<g enable-background="new    ">
	<path fill="#999999" d="M387.203,254.896h3.08v-9.77c0-0.292,0.01-0.589,0.029-0.889l-2.56,2.19
		c-0.066,0.053-0.134,0.092-0.2,0.115s-0.13,0.035-0.189,0.035c-0.1,0-0.19-0.021-0.271-0.066c-0.079-0.043-0.14-0.094-0.18-0.154
		l-0.56-0.77l4.26-3.691h1.449v13h2.82v1.361h-7.68V254.896z"/>
	<path fill="#999999" d="M397.543,256.467c-0.094,0.234-0.232,0.406-0.416,0.521c-0.183,0.113-0.371,0.17-0.564,0.17h-0.75
		l6.01-14.971c0.087-0.213,0.211-0.376,0.37-0.489c0.16-0.113,0.351-0.171,0.57-0.171h0.75L397.543,256.467z"/>
	<path fill="#999999" d="M409.402,241.767c0.607,0,1.174,0.09,1.7,0.271c0.526,0.18,0.981,0.441,1.365,0.785
		c0.384,0.343,0.685,0.762,0.905,1.255c0.22,0.493,0.33,1.053,0.33,1.68c0,0.533-0.08,1.025-0.24,1.48
		c-0.16,0.453-0.377,0.887-0.65,1.305c-0.273,0.416-0.588,0.82-0.945,1.209c-0.356,0.391-0.734,0.789-1.135,1.195l-3.77,3.859
		c0.266-0.072,0.536-0.131,0.81-0.174s0.536-0.066,0.79-0.066h4.801c0.192,0,0.346,0.059,0.459,0.172s0.17,0.26,0.17,0.439v1.08
		h-9.56v-0.611c0-0.125,0.024-0.256,0.075-0.389c0.05-0.133,0.131-0.258,0.244-0.371l4.591-4.609c0.38-0.387,0.727-0.758,1.04-1.115
		c0.312-0.355,0.582-0.715,0.805-1.074c0.223-0.361,0.395-0.725,0.516-1.096c0.119-0.369,0.18-0.766,0.18-1.186
		s-0.066-0.787-0.2-1.104c-0.134-0.316-0.317-0.578-0.55-0.785c-0.234-0.207-0.507-0.361-0.82-0.465s-0.65-0.155-1.01-0.155
		c-0.36,0-0.693,0.054-1,0.16s-0.578,0.255-0.814,0.444c-0.237,0.19-0.438,0.415-0.601,0.676c-0.163,0.26-0.278,0.547-0.345,0.86
		c-0.054,0.193-0.134,0.334-0.24,0.42c-0.107,0.086-0.247,0.131-0.42,0.131c-0.033,0-0.068-0.002-0.105-0.006
		s-0.078-0.008-0.125-0.016l-0.93-0.16c0.094-0.652,0.273-1.231,0.54-1.734c0.267-0.504,0.604-0.926,1.015-1.266
		s0.881-0.598,1.41-0.774C408.218,241.856,408.789,241.767,409.402,241.767z"/>
	<path fill="#999999" d="M419.422,259.248c-0.06,0.133-0.135,0.24-0.225,0.318c-0.09,0.08-0.229,0.121-0.415,0.121h-1.319l1.85-4.02
		l-4.18-9.541h1.539c0.154,0,0.273,0.039,0.36,0.115s0.149,0.162,0.19,0.256l2.709,6.379c0.061,0.146,0.112,0.293,0.156,0.439
		c0.043,0.148,0.081,0.297,0.114,0.451c0.046-0.154,0.093-0.303,0.14-0.451c0.047-0.146,0.101-0.295,0.16-0.449l2.631-6.369
		c0.039-0.107,0.107-0.195,0.205-0.266c0.096-0.07,0.201-0.105,0.314-0.105h1.42L419.422,259.248z"/>
</g>
</svg>
