<?xml version="1.0" encoding="utf-8"?>
<!-- Generator: Adobe Illustrator 17.0.0, SVG Export Plug-In . SVG Version: 6.00 Build 0)  -->
<!DOCTYPE svg PUBLIC "-//W3C//DTD SVG 1.1//EN" "http://www.w3.org/Graphics/SVG/1.1/DTD/svg11.dtd">
<svg version="1.1" id="Layer_1" xmlns="http://www.w3.org/2000/svg" xmlns:xlink="http://www.w3.org/1999/xlink" x="0px" y="0px"
	 width="102.397px" height="188.72px" viewBox="123.07 25.271 102.397 188.72"
	 enable-background="new 123.07 25.271 102.397 188.72" xml:space="preserve">
<g>
	<polygon fill="#2DB99F" points="123.07,166.811 195.701,166.811 225.467,213.991 	"/>
	<polygon fill="#1F8170" points="123.07,72.451 195.701,72.451 225.467,25.271 	"/>
	<polygon fill="#2DB99F" points="152.837,119.631 225.467,119.631 195.701,72.451 123.07,72.451 	"/>
	<polygon fill="#1F8170" points="123.07,166.811 195.701,166.811 225.467,119.631 152.837,119.631 	"/>
</g>
<g opacity="0.4">
	<path fill="#FF0000" d="M155.298,77.222l12.772,19.25c3.331,4.997,6.108,9.625,9.069,14.623h0.555
		c2.962-5.368,5.924-9.995,8.886-14.808l12.586-19.065h17.584l-30.541,43.313l31.467,46.276h-18.51l-13.142-20.176
		c-3.517-5.183-6.479-10.181-9.625-15.549h-0.37c-2.962,5.368-6.108,10.181-9.44,15.549l-12.957,20.176h-17.955l31.837-45.72
		l-30.356-43.868H155.298z"/>
</g>
</svg>
