<?xml version="1.0" encoding="utf-8"?>
<!-- Generator: Adobe Illustrator 17.0.0, SVG Export Plug-In . SVG Version: 6.00 Build 0)  -->
<!DOCTYPE svg PUBLIC "-//W3C//DTD SVG 1.1//EN" "http://www.w3.org/Graphics/SVG/1.1/DTD/svg11.dtd">
<svg version="1.1" id="Layer_1" xmlns="http://www.w3.org/2000/svg" xmlns:xlink="http://www.w3.org/1999/xlink" x="0px" y="0px"
	 width="740px" height="274.289px" viewBox="0 107.355 740 274.289" enable-background="new 0 107.355 740 274.289"
	 xml:space="preserve">
<g>
	<g>
		<polygon fill="#2DB99F" points="310.243,174.179 310.243,274.037 245.376,314.963 		"/>
		<polygon fill="#1F8170" points="439.977,174.179 439.977,274.037 504.845,314.963 		"/>
		<polygon fill="#2DB99F" points="375.11,215.105 375.11,314.963 439.976,274.038 439.976,174.179 		"/>
		<polygon fill="#1F8170" points="310.243,174.179 310.243,274.038 375.11,314.963 375.11,215.105 		"/>
	</g>
	<polyline fill="none" stroke="#999999" stroke-miterlimit="10" stroke-dasharray="8" points="516.769,174.037 528.257,174.037 
		528.455,314.275 516.769,314.275 	"/>
	<g enable-background="new    ">
		<path fill="#999999" d="M544.72,205.066l-4.688-6.791h2.351c0.201,0,0.348,0.032,0.44,0.096c0.091,0.063,0.173,0.155,0.247,0.274
			l3.408,5.226c0.084-0.257,0.201-0.514,0.359-0.771l2.997-4.4c0.092-0.128,0.184-0.231,0.275-0.309
			c0.091-0.078,0.206-0.117,0.344-0.117h2.256l-4.688,6.654l4.879,7.273h-2.35c-0.201,0-0.36-0.052-0.476-0.158
			c-0.114-0.104-0.208-0.221-0.282-0.351l-3.505-5.458c-0.065,0.265-0.161,0.503-0.29,0.715l-3.243,4.743
			c-0.091,0.129-0.191,0.246-0.296,0.351c-0.106,0.106-0.25,0.158-0.433,0.158h-2.187L544.72,205.066z"/>
	</g>
	<g enable-background="new    ">
		<path fill="#999999" d="M397.28,145.367h4.235v-13.433c0-0.403,0.014-0.811,0.04-1.224l-3.52,3.01
			c-0.091,0.074-0.184,0.126-0.275,0.158c-0.091,0.032-0.179,0.048-0.26,0.048c-0.138,0-0.261-0.029-0.373-0.089
			c-0.109-0.059-0.192-0.131-0.247-0.213l-0.77-1.059l5.857-5.073h1.992v17.873h3.877v1.87h-10.559v-1.868H397.28z"/>
		<path fill="#999999" d="M411.497,147.527c-0.129,0.32-0.319,0.558-0.572,0.716c-0.252,0.155-0.51,0.234-0.775,0.234h-1.031
			l8.263-20.583c0.12-0.293,0.29-0.517,0.509-0.672c0.22-0.155,0.483-0.235,0.784-0.235h1.031L411.497,147.527z"/>
		<path fill="#999999" d="M427.802,127.316c0.835,0,1.614,0.124,2.337,0.373c0.723,0.247,1.349,0.606,1.877,1.079
			c0.528,0.472,0.942,1.048,1.244,1.725c0.302,0.678,0.454,1.448,0.454,2.31c0,0.733-0.11,1.411-0.33,2.035
			c-0.22,0.623-0.518,1.221-0.894,1.794c-0.375,0.573-0.808,1.127-1.299,1.664c-0.489,0.536-1.009,1.083-1.56,1.643l-5.183,5.306
			c0.366-0.1,0.737-0.181,1.114-0.241c0.377-0.059,0.737-0.089,1.086-0.089h6.601c0.264,0,0.476,0.08,0.631,0.235
			s0.234,0.357,0.234,0.604v1.485h-13.144v-0.839c0-0.173,0.033-0.352,0.103-0.536c0.069-0.183,0.18-0.353,0.335-0.509l6.312-6.338
			c0.522-0.531,1-1.042,1.43-1.532c0.429-0.489,0.8-0.983,1.107-1.478c0.307-0.495,0.543-0.997,0.709-1.505
			c0.164-0.509,0.247-1.053,0.247-1.631s-0.091-1.083-0.275-1.518s-0.436-0.795-0.756-1.079c-0.322-0.285-0.697-0.496-1.127-0.639
			c-0.43-0.143-0.894-0.213-1.389-0.213c-0.495,0-0.953,0.074-1.375,0.22c-0.422,0.146-0.795,0.351-1.119,0.61
			c-0.326,0.261-0.602,0.571-0.826,0.929c-0.224,0.357-0.382,0.752-0.474,1.181c-0.074,0.265-0.184,0.459-0.33,0.577
			c-0.147,0.12-0.34,0.18-0.577,0.18c-0.045,0-0.093-0.003-0.144-0.008c-0.051-0.004-0.107-0.011-0.172-0.021l-1.279-0.22
			c0.129-0.898,0.375-1.692,0.742-2.384c0.367-0.693,0.83-1.273,1.396-1.741c0.565-0.467,1.211-0.822,1.939-1.064
			C426.172,127.437,426.959,127.316,427.802,127.316z"/>
		<path fill="#999999" d="M440.753,140.101l-4.688-6.791h2.351c0.201,0,0.348,0.032,0.44,0.096c0.091,0.063,0.173,0.155,0.247,0.274
			l3.408,5.226c0.084-0.257,0.201-0.514,0.359-0.771l2.997-4.4c0.092-0.128,0.184-0.231,0.275-0.309s0.206-0.117,0.344-0.117h2.256
			l-4.688,6.654l4.879,7.273h-2.35c-0.201,0-0.36-0.052-0.476-0.158c-0.114-0.104-0.208-0.221-0.282-0.351l-3.505-5.458
			c-0.065,0.265-0.161,0.503-0.29,0.715l-3.243,4.743c-0.091,0.129-0.191,0.246-0.296,0.351c-0.106,0.106-0.25,0.158-0.433,0.158
			h-2.187L440.753,140.101z"/>
	</g>
	<g enable-background="new    ">
		<path fill="#999999" d="M397.28,354.349h4.235v-13.433c0-0.403,0.014-0.811,0.04-1.224l-3.52,3.01
			c-0.091,0.074-0.184,0.126-0.275,0.158c-0.091,0.032-0.179,0.048-0.26,0.048c-0.138,0-0.261-0.029-0.373-0.089
			c-0.109-0.059-0.192-0.131-0.247-0.213l-0.77-1.059l5.857-5.073h1.992v17.874h3.877v1.87h-10.559v-1.868H397.28z"/>
		<path fill="#999999" d="M411.497,356.509c-0.129,0.32-0.319,0.558-0.572,0.716c-0.252,0.155-0.51,0.234-0.775,0.234h-1.031
			l8.263-20.583c0.12-0.293,0.29-0.517,0.509-0.672c0.22-0.155,0.483-0.235,0.784-0.235h1.031L411.497,356.509z"/>
		<path fill="#999999" d="M427.802,336.298c0.835,0,1.614,0.124,2.337,0.373c0.723,0.247,1.349,0.606,1.877,1.079
			c0.528,0.472,0.942,1.048,1.244,1.725c0.302,0.678,0.454,1.448,0.454,2.31c0,0.733-0.11,1.411-0.33,2.035
			c-0.22,0.623-0.518,1.221-0.894,1.794c-0.375,0.573-0.808,1.127-1.299,1.664c-0.489,0.536-1.009,1.083-1.56,1.643l-5.183,5.306
			c0.366-0.1,0.737-0.181,1.114-0.241c0.377-0.059,0.737-0.089,1.086-0.089h6.601c0.264,0,0.476,0.08,0.631,0.235
			s0.234,0.357,0.234,0.604v1.485h-13.144v-0.839c0-0.173,0.033-0.352,0.103-0.536c0.069-0.183,0.18-0.353,0.335-0.509l6.312-6.338
			c0.522-0.531,1-1.042,1.43-1.532c0.429-0.489,0.8-0.983,1.107-1.478s0.543-0.997,0.709-1.505c0.164-0.509,0.247-1.053,0.247-1.631
			s-0.091-1.083-0.275-1.518s-0.436-0.795-0.756-1.079c-0.322-0.285-0.697-0.496-1.127-0.639c-0.43-0.143-0.894-0.213-1.389-0.213
			c-0.495,0-0.953,0.074-1.375,0.22c-0.422,0.146-0.795,0.351-1.119,0.61c-0.326,0.261-0.602,0.571-0.826,0.929
			c-0.224,0.357-0.382,0.752-0.474,1.181c-0.074,0.265-0.184,0.459-0.33,0.577c-0.147,0.12-0.34,0.18-0.577,0.18
			c-0.045,0-0.093-0.003-0.144-0.008c-0.051-0.004-0.107-0.011-0.172-0.021l-1.279-0.22c0.129-0.898,0.375-1.692,0.742-2.384
			c0.367-0.693,0.83-1.273,1.396-1.741c0.565-0.467,1.211-0.822,1.939-1.064C426.172,336.419,426.959,336.298,427.802,336.298z"/>
		<path fill="#999999" d="M440.753,349.083l-4.688-6.791h2.351c0.201,0,0.348,0.032,0.44,0.096c0.091,0.063,0.173,0.155,0.247,0.274
			l3.408,5.226c0.084-0.257,0.201-0.514,0.359-0.771l2.997-4.4c0.092-0.128,0.184-0.231,0.275-0.309
			c0.091-0.078,0.206-0.117,0.344-0.117h2.256l-4.688,6.654l4.879,7.273h-2.35c-0.201,0-0.36-0.052-0.476-0.158
			c-0.114-0.104-0.208-0.221-0.282-0.351l-3.505-5.458c-0.065,0.265-0.161,0.503-0.29,0.715l-3.243,4.743
			c-0.091,0.129-0.191,0.246-0.296,0.351c-0.106,0.106-0.25,0.158-0.433,0.158h-2.187L440.753,349.083z"/>
	</g>
	<g enable-background="new    ">
		<path fill="#999999" d="M188.298,286.98h4.235v-13.433c0-0.403,0.014-0.811,0.041-1.224l-3.52,3.01
			c-0.091,0.074-0.183,0.126-0.275,0.158s-0.179,0.048-0.261,0.048c-0.137,0-0.261-0.029-0.371-0.089
			c-0.11-0.059-0.192-0.131-0.247-0.213l-0.77-1.059l5.857-5.073h1.994v17.873h3.877v1.87h-10.559V286.98z"/>
		<path fill="#999999" d="M202.513,289.14c-0.128,0.32-0.318,0.558-0.571,0.716c-0.252,0.155-0.511,0.234-0.777,0.234h-1.031
			l8.263-20.583c0.118-0.293,0.289-0.517,0.509-0.672c0.22-0.155,0.481-0.235,0.784-0.235h1.031L202.513,289.14z"/>
		<path fill="#999999" d="M218.819,268.929c0.835,0,1.613,0.124,2.337,0.373c0.723,0.247,1.349,0.606,1.877,1.079
			c0.527,0.472,0.942,1.048,1.244,1.725c0.302,0.678,0.454,1.448,0.454,2.31c0,0.733-0.11,1.411-0.33,2.035
			c-0.22,0.623-0.517,1.221-0.894,1.794c-0.377,0.573-0.808,1.127-1.299,1.664s-1.011,1.083-1.56,1.643l-5.183,5.306
			c0.367-0.1,0.738-0.181,1.114-0.241c0.375-0.059,0.738-0.089,1.086-0.089h6.599c0.265,0,0.476,0.08,0.632,0.235
			c0.155,0.155,0.234,0.357,0.234,0.604v1.485h-13.144v-0.839c0-0.173,0.034-0.352,0.103-0.536c0.069-0.183,0.18-0.353,0.337-0.509
			l6.311-6.338c0.522-0.531,1-1.042,1.43-1.532c0.43-0.489,0.8-0.983,1.107-1.478s0.543-0.997,0.708-1.505
			c0.165-0.509,0.247-1.053,0.247-1.631s-0.092-1.083-0.275-1.518c-0.183-0.434-0.436-0.795-0.756-1.079
			c-0.322-0.285-0.697-0.496-1.127-0.639c-0.43-0.143-0.894-0.213-1.389-0.213s-0.953,0.074-1.375,0.22
			c-0.422,0.146-0.796,0.351-1.121,0.61c-0.326,0.261-0.601,0.571-0.825,0.929c-0.225,0.357-0.382,0.752-0.474,1.181
			c-0.073,0.265-0.183,0.459-0.33,0.577c-0.147,0.12-0.34,0.18-0.577,0.18c-0.047,0-0.095-0.003-0.144-0.008
			c-0.051-0.004-0.107-0.011-0.172-0.021l-1.279-0.22c0.128-0.898,0.375-1.692,0.742-2.384c0.367-0.693,0.832-1.273,1.396-1.741
			c0.564-0.467,1.21-0.822,1.939-1.064C217.19,269.05,217.976,268.929,218.819,268.929z"/>
		<path fill="#999999" d="M231.771,281.714l-4.688-6.791h2.351c0.201,0,0.348,0.032,0.44,0.096c0.091,0.063,0.173,0.155,0.247,0.274
			l3.41,5.226c0.083-0.257,0.201-0.514,0.357-0.771l2.997-4.4c0.092-0.128,0.183-0.231,0.275-0.309
			c0.091-0.078,0.206-0.117,0.344-0.117h2.255l-4.688,6.654l4.881,7.273H237.6c-0.201,0-0.36-0.052-0.474-0.158
			c-0.114-0.104-0.209-0.221-0.282-0.351l-3.506-5.458c-0.065,0.265-0.161,0.503-0.289,0.715l-3.245,4.743
			c-0.091,0.129-0.19,0.246-0.296,0.351c-0.106,0.106-0.25,0.158-0.433,0.158h-2.186L231.771,281.714z"/>
	</g>
	<g enable-background="new    ">
		<path fill="#999999" d="M522.395,286.98h4.235v-13.433c0-0.403,0.014-0.811,0.04-1.224l-3.52,3.01
			c-0.091,0.074-0.184,0.126-0.275,0.158s-0.179,0.048-0.26,0.048c-0.137,0-0.261-0.029-0.373-0.089
			c-0.109-0.059-0.193-0.131-0.247-0.213l-0.77-1.059l5.857-5.073h1.992v17.873h3.877v1.87h-10.559v-1.868H522.395z"/>
		<path fill="#999999" d="M536.611,289.14c-0.129,0.32-0.319,0.558-0.572,0.716c-0.252,0.155-0.51,0.234-0.775,0.234h-1.031
			l8.263-20.583c0.12-0.293,0.29-0.517,0.509-0.672c0.22-0.155,0.483-0.235,0.784-0.235h1.031L536.611,289.14z"/>
		<path fill="#999999" d="M552.916,268.929c0.835,0,1.614,0.124,2.337,0.373c0.723,0.247,1.349,0.606,1.877,1.079
			c0.528,0.472,0.942,1.048,1.244,1.725c0.302,0.678,0.454,1.448,0.454,2.31c0,0.733-0.11,1.411-0.33,2.035
			c-0.22,0.623-0.518,1.221-0.894,1.794s-0.808,1.127-1.299,1.664c-0.489,0.536-1.009,1.083-1.56,1.643l-5.183,5.306
			c0.366-0.1,0.737-0.181,1.114-0.241c0.377-0.059,0.737-0.089,1.086-0.089h6.601c0.264,0,0.476,0.08,0.631,0.235
			c0.155,0.155,0.234,0.357,0.234,0.604v1.485h-13.144v-0.839c0-0.173,0.033-0.352,0.103-0.536c0.069-0.183,0.18-0.353,0.335-0.509
			l6.312-6.338c0.522-0.531,1-1.042,1.43-1.532c0.429-0.489,0.8-0.983,1.107-1.478s0.543-0.997,0.709-1.505
			c0.164-0.509,0.247-1.053,0.247-1.631s-0.091-1.083-0.275-1.518c-0.184-0.434-0.436-0.795-0.756-1.079
			c-0.322-0.285-0.697-0.496-1.127-0.639s-0.894-0.213-1.389-0.213c-0.495,0-0.953,0.074-1.375,0.22
			c-0.422,0.146-0.795,0.351-1.119,0.61c-0.326,0.261-0.602,0.571-0.826,0.929c-0.224,0.357-0.382,0.752-0.474,1.181
			c-0.074,0.265-0.184,0.459-0.33,0.577c-0.147,0.12-0.34,0.18-0.578,0.18c-0.045,0-0.093-0.003-0.144-0.008
			c-0.051-0.004-0.107-0.011-0.172-0.021l-1.279-0.22c0.129-0.898,0.375-1.692,0.742-2.384c0.367-0.693,0.83-1.273,1.396-1.741
			c0.565-0.467,1.211-0.822,1.939-1.064C551.287,269.05,552.073,268.929,552.916,268.929z"/>
		<path fill="#999999" d="M565.867,281.714l-4.688-6.791h2.351c0.201,0,0.348,0.032,0.44,0.096c0.091,0.063,0.173,0.155,0.247,0.274
			l3.408,5.226c0.084-0.257,0.201-0.514,0.359-0.771l2.997-4.4c0.092-0.128,0.184-0.231,0.275-0.309s0.206-0.117,0.344-0.117h2.256
			l-4.688,6.654l4.879,7.273h-2.35c-0.201,0-0.36-0.052-0.476-0.158c-0.114-0.104-0.208-0.221-0.282-0.351l-3.505-5.458
			c-0.065,0.265-0.161,0.503-0.29,0.715l-3.243,4.743c-0.091,0.129-0.191,0.246-0.296,0.351c-0.106,0.106-0.25,0.158-0.433,0.158
			h-2.187L565.867,281.714z"/>
	</g>
	
		<line fill="none" stroke="#999999" stroke-miterlimit="10" stroke-dasharray="8" x1="371.719" y1="380.957" x2="371.719" y2="310.838"/>
	
		<line fill="none" stroke="#999999" stroke-miterlimit="10" stroke-dasharray="8" x1="371.719" y1="177.474" x2="371.719" y2="107.355"/>
	
		<line fill="none" stroke="#999999" stroke-miterlimit="10" stroke-dasharray="8" x1="240.417" y1="253.78" x2="170.298" y2="253.78"/>
	
		<line fill="none" stroke="#999999" stroke-miterlimit="10" stroke-dasharray="8" x1="574.514" y1="253.78" x2="504.395" y2="253.78"/>
	
		<rect x="165.486" y="108.043" fill="none" stroke="#999999" stroke-miterlimit="10" stroke-dasharray="12" width="408.341" height="273.602"/>
</g>
</svg>
