<?xml version="1.0" encoding="utf-8"?>
<!-- Generator: Adobe Illustrator 17.0.0, SVG Export Plug-In . SVG Version: 6.00 Build 0)  -->
<!DOCTYPE svg PUBLIC "-//W3C//DTD SVG 1.1//EN" "http://www.w3.org/Graphics/SVG/1.1/DTD/svg11.dtd">
<svg version="1.1" id="Layer_1" xmlns="http://www.w3.org/2000/svg" xmlns:xlink="http://www.w3.org/1999/xlink" x="0px" y="0px"
	 width="104.515px" height="485.402px" viewBox="190.444 -55.697 104.515 485.402"
	 enable-background="new 190.444 -55.697 104.515 485.402" xml:space="preserve">
<g>
	<path fill="#2DB99F" d="M204.123,359.779c0,8.349,5.387,14.938,11.249,20.922c-7.177,2.143-11.249,8.248-11.249,17.018
		c0,6.133,3.254,12.601,9.68,19.251h-7.85v12.735h64.461V416.97h-44.73c-4.734-5.054-9.679-12.059-9.679-16.933
		c0-5.521,2.479-8.149,16.567-8.149h37.842l0-12.736h-44.732c-4.864-5.17-9.677-12.245-9.677-16.689
		c0-6.511,3.716-8.394,16.567-8.394h37.842v-12.735h-42.722C211.393,341.333,204.123,347.022,204.123,359.779z"/>
	<path fill="#2DB99F" d="M204.123,301.047c0,19.718,11.301,29.303,34.549,29.303c22.591,0,33.572-10.024,33.572-30.645
		c0-8.29-2.209-15.232-6.565-20.635l-0.625-0.775l-9.58,7.664l0.79,0.79c2.46,2.46,5.075,7.966,5.075,13.322
		c0,13.687-10.225,16.948-19.228,17.165l0-42.686h-8.441C214.064,274.551,204.123,283.465,204.123,301.047z M214.663,301.535
		c0-9.667,5.227-14.125,16.909-14.361l0,29.857C220.196,315.858,214.663,310.783,214.663,301.535z"/>
	<path fill="#2DB99F" d="M204.123,169.242c0,10.729,2.398,18.61,7.333,24.092l0.635,0.706l9.245-7.484l-0.71-0.783
		c-3.871-4.272-5.598-9.294-5.598-16.286c0-9.902,3.422-14.128,11.443-14.128h2.11c0.337,5.396,0.695,10.113,1.288,15.209
		c1.36,12.809,5.034,25.903,21.977,25.903c12.391,0,20.397-8.102,20.397-20.641c0-7.748-3.236-13.719-8.552-20.472h6.722v-12.735
		h-43.454C210.74,142.623,204.124,150.335,204.123,169.242z M239.16,159.355c-0.14-1.4-0.269-2.701-0.379-3.997h13.676
		c4.092,5.263,8.639,11.203,8.639,17.178c0,7.391-3.017,10.833-9.492,10.833c-8.62,0-10.957-7.118-11.935-18.604
		C239.495,162.734,239.321,160.978,239.16,159.355z"/>
	<path fill="#2DB99F" d="M250.652,19.38c6.088,7.243,9.711,14.1,9.711,18.396c0,7.931-3.562,10.102-16.567,10.102h-37.842v12.735
		h41.502c16.681,0,24.789-6.712,24.789-20.519c0-6.211-3.476-13.506-9.833-20.715h8.003l0-12.735l-64.461,0v12.735l44.698,0V19.38z"
		/>
	<path fill="#2DB99F" d="M231.935-32.358l-0.211,0.847c-0.107,0.441-0.215,0.897-0.324,1.363
		c-1.229,5.236-2.624,11.172-8.342,11.172c-7.873,0-8.271-9.939-8.271-11.932c0-5.936,2.435-10.748,6.854-13.551l0.806-0.511
		l-5.978-10.497l-0.876,0.521c-7.182,4.264-11.469,13.067-11.469,23.55c0,11.491,5.183,24.911,19.787,24.911
		c13.583,0,17.39-10.68,20.124-21.621c3.029-12.237,4.214-15.099,8.911-15.099c3.94,0,8.637,2.324,8.637,13.395
		c0,4.708-1.232,11.113-7.105,14.896l-0.796,0.513l5.959,10.465l0.864-0.478c8.656-4.779,11.74-16.001,11.74-24.908
		c0-16.516-7.534-26.375-20.153-26.375C237.75-55.697,234.661-43.298,231.935-32.358z"/>
	<path fill="#2DB99F" d="M204.124,96.8c0,6.613,2.493,13.43,6.899,19.008l-20.579,0v12.735h80.824v-4.538l-2.034-7.202
		c0.065-0.232,0.14-0.49,0.222-0.772c0.905-3.136,2.789-9.661,2.789-18.254c0-16.744-12.915-26.741-34.549-26.741
		C216.047,71.035,204.124,80.185,204.124,96.8z M222.774,115.808c-2.934-3.347-7.501-9.717-7.501-16.934
		c0-10.055,7.202-14.737,22.667-14.737c14.932,0,23.155,5.624,23.155,15.835c0,8.603-1.594,12.883-3.24,15.836H222.774z"/>
	<path fill="#2DB99F" d="M205.035,211.941l2.034,7.202c-0.065,0.232-0.14,0.49-0.222,0.772c-0.905,3.136-2.789,9.661-2.789,18.254
		c0,16.744,12.915,26.741,34.549,26.741c21.649,0,33.572-9.15,33.572-25.765c0-5.323-1.618-10.776-4.545-15.61
		c-0.623-1.135-1.302-2.267-2.088-3.398h4.257c10.381,0,14.615,4.694,14.615,16.201c0,6.681-2.609,13.152-4.845,16.665l-0.62,0.975
		l10.262,4.611l0.464-0.732c2.539-4.008,5.279-13.375,5.279-21.519c0-11.841-2.949-19.883-9.1-24.427
		c-4.104-3.032-9.63-4.509-16.665-4.509h-5.366h-58.793L205.035,211.941L205.035,211.941z M253.529,220.139
		c2.934,3.347,7.501,9.717,7.501,16.934c0,10.055-7.202,14.737-22.667,14.737c-14.932,0-23.155-5.624-23.155-15.835
		c0-8.603,1.594-12.883,3.24-15.836H253.529z"/>
</g>
</svg>
