<?xml version="1.0" encoding="utf-8"?>
<!-- Generator: Adobe Illustrator 17.0.0, SVG Export Plug-In . SVG Version: 6.00 Build 0)  -->
<!DOCTYPE svg PUBLIC "-//W3C//DTD SVG 1.1//EN" "http://www.w3.org/Graphics/SVG/1.1/DTD/svg11.dtd">
<svg version="1.1" id="Layer_1" xmlns="http://www.w3.org/2000/svg" xmlns:xlink="http://www.w3.org/1999/xlink" x="0px" y="0px"
	 width="618px" height="206px" viewBox="0 0 618 206" enable-background="new 0 0 618 206" xml:space="preserve">
<rect x="0.5" y="0.5" fill="none" stroke="#999999" stroke-miterlimit="10" stroke-dasharray="12" width="617" height="205"/>
<g>
	<path fill="#2DB99F" d="M142.231,68.795c-8.349,0-14.937,5.387-20.922,11.249c-2.143-7.177-8.248-11.249-17.018-11.249
		c-6.133,0-12.601,3.254-19.251,9.68v-7.85H72.305v64.461H85.04v-44.73c5.054-4.734,12.059-9.679,16.933-9.679
		c5.521,0,8.149,2.479,8.149,16.567v37.842h12.736V90.353c5.17-4.864,12.245-9.677,16.689-9.677c6.511,0,8.394,3.716,8.394,16.567
		v37.842h12.735V92.364C160.676,76.064,154.988,68.795,142.231,68.795z"/>
	<path fill="#2DB99F" d="M200.963,68.795c-19.718,0-29.303,11.301-29.303,34.549c0,22.591,10.024,33.572,30.645,33.572
		c8.29,0,15.232-2.209,20.635-6.565l0.775-0.625l-7.664-9.58l-0.79,0.79c-2.46,2.46-7.966,5.075-13.322,5.075
		c-13.687,0-16.948-10.225-17.165-19.228h42.686v-8.441C227.459,78.736,218.545,68.795,200.963,68.795z M200.475,79.335
		c9.667,0,14.125,5.227,14.361,16.909h-29.857C186.151,84.868,191.228,79.335,200.475,79.335z"/>
	<path fill="#2DB99F" d="M332.768,68.795c-10.729,0-18.61,2.398-24.092,7.333l-0.706,0.635l7.484,9.245l0.783-0.71
		c4.272-3.871,9.294-5.598,16.286-5.598c9.902,0,14.128,3.422,14.128,11.443v2.11c-5.396,0.337-10.113,0.695-15.209,1.288
		c-12.809,1.36-25.903,5.034-25.903,21.977c0,12.391,8.102,20.397,20.641,20.397c7.748,0,13.719-3.236,20.472-8.552v6.722h12.735
		V91.632C359.387,75.411,351.675,68.795,332.768,68.795z M342.655,103.831c1.4-0.14,2.701-0.269,3.997-0.379v13.676
		c-5.263,4.092-11.203,8.639-17.178,8.639c-7.391,0-10.833-3.017-10.833-9.492c0-8.62,7.118-10.957,18.604-11.935
		C339.276,104.166,341.032,103.992,342.655,103.831z"/>
	<path fill="#2DB99F" d="M482.63,115.323c-7.243,6.088-14.1,9.711-18.396,9.711c-7.931,0-10.102-3.562-10.102-16.567V70.625h-12.735
		v41.502c0,16.681,6.712,24.789,20.519,24.789c6.211,0,13.506-3.476,20.715-9.833v8.003h12.735V70.625H482.63V115.323z"/>
	<path fill="#2DB99F" d="M534.369,96.605l-0.847-0.211c-0.441-0.107-0.897-0.215-1.363-0.324
		c-5.236-1.229-11.172-2.624-11.172-8.342c0-7.873,9.939-8.271,11.932-8.271c5.936,0,10.748,2.435,13.551,6.854l0.511,0.806
		l10.497-5.978l-0.521-0.876c-4.264-7.182-13.067-11.469-23.55-11.469c-11.491,0-24.911,5.183-24.911,19.787
		c0,13.583,10.68,17.39,21.621,20.124c12.237,3.029,15.099,4.214,15.099,8.911c0,3.94-2.324,8.637-13.395,8.637
		c-4.708,0-11.113-1.232-14.896-7.105l-0.513-0.796l-10.465,5.959l0.478,0.864c4.779,8.656,16.001,11.74,24.908,11.74
		c16.516,0,26.375-7.534,26.375-20.153C557.708,102.421,545.308,99.332,534.369,96.605z"/>
	<path fill="#2DB99F" d="M405.21,68.795c-6.613,0-13.43,2.493-19.008,6.899V55.115h-12.735v80.824h4.538l7.202-2.034
		c0.232,0.065,0.49,0.14,0.772,0.222c3.136,0.905,9.661,2.789,18.254,2.789c16.744,0,26.741-12.915,26.741-34.549
		C430.975,80.718,421.825,68.795,405.21,68.795z M386.203,87.445c3.347-2.934,9.717-7.501,16.934-7.501
		c10.055,0,14.737,7.202,14.737,22.667c0,14.932-5.624,23.155-15.835,23.155c-8.603,0-12.883-1.594-15.836-3.24V87.445z"/>
	<path fill="#2DB99F" d="M290.069,69.707l-7.202,2.034c-0.232-0.065-0.49-0.14-0.772-0.222c-3.136-0.905-9.661-2.789-18.254-2.789
		c-16.744,0-26.741,12.915-26.741,34.549c0,21.649,9.15,33.572,25.765,33.572c5.323,0,10.776-1.618,15.61-4.545
		c1.135-0.623,2.267-1.302,3.398-2.088v4.257c0,10.381-4.694,14.615-16.201,14.615c-6.681,0-13.152-2.609-16.665-4.845l-0.975-0.62
		l-4.611,10.262l0.732,0.464c4.008,2.539,13.375,5.279,21.519,5.279c11.841,0,19.883-2.949,24.427-9.1
		c3.032-4.104,4.509-9.63,4.509-16.665V128.5V69.707H290.069z M281.872,118.201c-3.347,2.934-9.717,7.501-16.934,7.501
		c-10.055,0-14.737-7.202-14.737-22.667c0-14.932,5.624-23.155,15.835-23.155c8.603,0,12.883,1.594,15.836,3.24V118.201z"/>
</g>
<polyline fill="none" stroke="#999999" stroke-miterlimit="10" stroke-dasharray="12" points="561,69.5 571.5,69.5 571.5,137.5 
	561,137.5 "/>
<line fill="none" stroke="#999999" stroke-miterlimit="10" stroke-dasharray="12" x1="315.5" y1="138" x2="315.5" y2="207"/>
<line fill="none" stroke="#999999" stroke-miterlimit="10" stroke-dasharray="12" x1="315.5" y1="0" x2="315.5" y2="69"/>
<line fill="none" stroke="#999999" stroke-miterlimit="10" stroke-dasharray="12" x1="558" y1="107.5" x2="627" y2="107.5"/>
<line fill="none" stroke="#999999" stroke-miterlimit="10" stroke-dasharray="12" x1="3" y1="107.5" x2="72" y2="107.5"/>
<g enable-background="new    ">
	<path fill="#999999" d="M335.787,174.459l-4.262-6.174h2.137c0.184,0,0.316,0.029,0.4,0.086c0.083,0.059,0.158,0.143,0.225,0.25
		l3.101,4.75c0.075-0.232,0.183-0.467,0.325-0.699l2.725-4c0.083-0.117,0.166-0.211,0.25-0.281c0.083-0.07,0.188-0.105,0.312-0.105
		h2.05l-4.263,6.049l4.438,6.613h-2.137c-0.184,0-0.328-0.049-0.432-0.145c-0.104-0.096-0.189-0.201-0.256-0.318l-3.188-4.963
		c-0.059,0.242-0.146,0.459-0.263,0.65l-2.95,4.312c-0.084,0.117-0.173,0.223-0.269,0.318c-0.097,0.096-0.228,0.145-0.394,0.145
		h-1.988L335.787,174.459z"/>
</g>
<g enable-background="new    ">
	<path fill="#999999" d="M335.787,36.459l-4.262-6.175h2.137c0.184,0,0.316,0.029,0.4,0.087c0.083,0.059,0.158,0.142,0.225,0.25
		l3.101,4.75c0.075-0.233,0.183-0.467,0.325-0.7l2.725-4c0.083-0.116,0.166-0.21,0.25-0.281c0.083-0.07,0.188-0.105,0.312-0.105
		h2.05l-4.263,6.05l4.438,6.612h-2.137c-0.184,0-0.328-0.048-0.432-0.144c-0.104-0.096-0.189-0.202-0.256-0.319l-3.188-4.962
		c-0.059,0.241-0.146,0.458-0.263,0.649L334,42.484c-0.084,0.117-0.173,0.224-0.269,0.319c-0.097,0.096-0.228,0.144-0.394,0.144
		h-1.988L335.787,36.459z"/>
</g>
<g enable-background="new    ">
	<path fill="#999999" d="M35.988,87.459l-4.263-6.175h2.138c0.183,0,0.316,0.029,0.4,0.087c0.083,0.059,0.158,0.142,0.225,0.25
		l3.1,4.75c0.075-0.233,0.183-0.467,0.325-0.7l2.725-4c0.083-0.116,0.167-0.21,0.25-0.281c0.083-0.07,0.188-0.105,0.312-0.105h2.05
		l-4.262,6.05l4.438,6.612h-2.138c-0.183,0-0.327-0.048-0.431-0.144c-0.104-0.096-0.189-0.202-0.256-0.319l-3.188-4.962
		c-0.058,0.241-0.146,0.458-0.262,0.649l-2.95,4.312c-0.083,0.117-0.173,0.224-0.269,0.319c-0.096,0.096-0.228,0.144-0.394,0.144
		H31.55L35.988,87.459z"/>
</g>
<g enable-background="new    ">
	<path fill="#999999" d="M590.987,87.459l-4.263-6.175h2.138c0.184,0,0.316,0.029,0.4,0.087c0.083,0.059,0.158,0.142,0.225,0.25
		l3.101,4.75c0.074-0.233,0.183-0.467,0.324-0.7l2.726-4c0.083-0.116,0.166-0.21,0.25-0.281c0.083-0.07,0.188-0.105,0.312-0.105
		h2.05l-4.263,6.05l4.438,6.612h-2.138c-0.183,0-0.327-0.048-0.431-0.144c-0.104-0.096-0.189-0.202-0.257-0.319l-3.188-4.962
		c-0.058,0.241-0.146,0.458-0.262,0.649l-2.95,4.312c-0.084,0.117-0.173,0.224-0.269,0.319c-0.097,0.096-0.228,0.144-0.395,0.144
		h-1.987L590.987,87.459z"/>
</g>
</svg>
