<?xml version="1.0" encoding="utf-8"?>
<!-- Generator: Adobe Illustrator 17.0.0, SVG Export Plug-In . SVG Version: 6.00 Build 0)  -->
<!DOCTYPE svg PUBLIC "-//W3C//DTD SVG 1.1//EN" "http://www.w3.org/Graphics/SVG/1.1/DTD/svg11.dtd">
<svg version="1.1" id="Layer_1" xmlns="http://www.w3.org/2000/svg" xmlns:xlink="http://www.w3.org/1999/xlink" x="0px" y="0px"
	 width="483.361px" height="276.494px" viewBox="13.869 -7.711 483.361 276.494"
	 enable-background="new 13.869 -7.711 483.361 276.494" xml:space="preserve">
<g>
	<polygon fill="#2DB99F" points="168.88,14.331 185.847,84.952 146.926,124.917 	"/>
	<polygon fill="#1F8170" points="260.629,-7.711 277.596,62.909 330.424,80.831 	"/>
	<polygon fill="#2DB99F" points="221.708,32.252 238.675,102.874 277.596,62.909 260.629,-7.711 	"/>
	<polygon fill="#1F8170" points="168.88,14.331 185.847,84.952 238.675,102.874 221.708,32.252 	"/>
	<path fill="#2DB99F" d="M81.433,187.99c-8.118,1.95-13.266,8.728-17.715,15.825c-3.76-6.478-10.648-9.011-19.175-6.962
		c-5.963,1.433-11.492,6.108-16.457,13.909l-1.834-7.633l-12.383,2.975l15.058,62.677l12.383-2.975l-10.449-43.492
		c3.808-5.784,9.464-12.228,14.203-13.367c5.368-1.29,8.503,0.507,11.794,14.205l8.84,36.795l12.384-2.975l-10.45-43.494
		c3.891-5.937,9.646-12.27,13.967-13.308c6.331-1.521,9.03,1.652,12.032,14.148l8.84,36.795l12.383-2.975l-9.98-41.54
		C101.066,190.75,93.837,185.01,81.433,187.99z"/>
	<path fill="#2DB99F" d="M138.54,174.27c-19.172,4.606-25.852,17.834-20.421,40.438c5.277,21.966,17.589,30.301,37.64,25.484
		c8.061-1.937,14.295-5.706,18.53-11.204l0.608-0.789l-9.69-7.525l-0.584,0.953c-1.817,2.967-6.56,6.795-11.768,8.047
		c-13.308,3.197-18.868-5.983-21.182-14.686l41.505-9.972l-1.972-8.207C166.625,177.747,155.636,170.163,138.54,174.27z
		 M140.528,184.633c9.4-2.258,14.955,1.783,17.914,13.086l-29.031,6.975C127.893,193.359,131.536,186.793,140.528,184.633z"/>
	<path fill="#2DB99F" d="M266.698,143.48c-10.432,2.506-17.535,6.679-21.712,12.758l-0.538,0.782l9.437,7.241l0.595-0.873
		c3.25-4.762,7.729-7.614,14.528-9.248c9.628-2.313,14.536,0.027,16.41,7.826l0.493,2.052c-5.168,1.588-9.671,3.038-14.487,4.805
		c-12.137,4.315-24.01,10.946-20.052,27.42c2.895,12.048,12.643,17.94,24.835,15.011c7.534-1.81,12.583-6.351,17.908-13.098
		l1.57,6.536l12.383-2.975l-10.151-42.252C294.126,143.695,285.082,139.063,266.698,143.48z M284.496,175.237
		c1.329-0.463,2.563-0.893,3.798-1.302l3.195,13.298c-4.161,5.208-8.875,11.017-14.685,12.413
		c-7.186,1.727-11.238-0.403-12.751-6.699c-2.014-8.381,4.361-12.317,15.301-15.951
		C281.289,176.352,282.956,175.773,284.496,175.237z"/>
	<path fill="#2DB99F" d="M423.283,153.712c-5.62,7.612-11.441,12.736-15.618,13.74c-7.712,1.853-10.655-1.104-13.693-13.749
		l-8.84-36.795l-12.383,2.975l9.695,40.354c3.897,16.219,12.317,22.535,25.742,19.31c6.039-1.451,12.32-6.535,17.845-14.4
		l1.87,7.782l12.383-2.975l-15.058-62.677l-12.383,2.975l10.442,43.461L423.283,153.712z"/>
	<path fill="#2DB99F" d="M469.217,123.427l-0.873-0.007c-0.454-0.001-0.922,0.001-1.401,0.003
		c-5.378,0.028-11.476,0.058-12.812-5.501c-1.839-7.655,7.732-10.364,9.67-10.83c5.772-1.387,11.019-0.143,14.777,3.499l0.685,0.664
		l8.81-8.265l-0.711-0.73c-5.824-5.987-15.385-8.099-25.578-5.65c-11.173,2.684-23.011,10.859-19.599,25.059
		c3.173,13.207,14.447,14.414,25.724,14.516c12.606,0.087,15.666,0.57,16.763,5.137c0.92,3.831-0.242,8.941-11.007,11.527
		c-4.578,1.1-11.093,1.398-16.144-3.429l-0.685-0.654l-8.783,8.239l0.667,0.728c6.669,7.3,18.301,7.677,26.961,5.597
		c16.059-3.858,23.885-13.487,20.937-25.757C493.269,123.629,480.491,123.522,469.217,123.427z"/>
	<path fill="#2DB99F" d="M337.136,126.557c-6.43,1.545-12.476,5.561-16.87,11.148l-4.807-20.01l-12.383,2.975l18.881,78.588
		l4.412-1.06l6.528-3.66c0.241,0.009,0.509,0.022,0.803,0.036c3.261,0.147,10.045,0.455,18.4-1.552
		c16.281-3.911,22.984-18.804,17.93-39.84C364.973,132.131,353.291,122.676,337.136,126.557z M323.011,149.132
		c2.569-3.635,7.696-9.563,14.713-11.249c9.777-2.349,16.012,3.56,19.624,18.597c3.488,14.519-0.059,23.828-9.988,26.213
		c-8.365,2.01-12.899,1.46-16.155,0.549L323.011,149.132z"/>
	<path fill="#2DB99F" d="M225.394,154.341l-6.528,3.66c-0.241-0.009-0.509-0.022-0.803-0.036c-3.261-0.147-10.045-0.455-18.4,1.552
		c-16.281,3.911-22.984,18.804-17.93,39.84c5.057,21.05,16.739,30.506,32.895,26.624c5.176-1.243,10.1-4.091,14.116-8.066
		c0.958-0.871,1.9-1.796,2.816-2.824l0.994,4.139c2.425,10.094-1.15,15.307-12.339,17.995c-6.496,1.561-13.398,0.536-17.336-0.818
		l-1.093-0.375l-2.086,11.055l0.82,0.28c4.49,1.532,14.238,2.008,22.157,0.106c11.513-2.766,18.644-7.512,21.625-14.555
		c1.989-4.699,2.135-10.417,0.491-17.257l-1.254-5.218l-13.734-57.166L225.394,154.341L225.394,154.341z M228.751,203.409
		c-2.569,3.635-7.696,9.563-14.713,11.249c-9.777,2.349-16.012-3.56-19.624-18.597c-3.488-14.519,0.059-23.828,9.988-26.213
		c8.365-2.01,12.899-1.46,16.155-0.549L228.751,203.409z"/>
</g>
</svg>
